<?xml version="1.0" encoding="utf-8"?>
<!-- Generator: Adobe Illustrator 23.0.4, SVG Export Plug-In . SVG Version: 6.00 Build 0)  -->
<svg version="1.1" id="Layer_1" xmlns="http://www.w3.org/2000/svg" xmlns:xlink="http://www.w3.org/1999/xlink" x="0px" y="0px"
	 viewBox="0 0 48 49" style="enable-background:new 0 0 48 49;" xml:space="preserve">
<style type="text/css">
	.st0{fill:none;}
	.st1{fill:#F5ECD8;}
	.st2{fill:#F7627B;}
</style>
<path class="st0" d="M0,48.4h48v-48H0V48.4z"/>
<path class="st1" d="M25.7,45.2V33.7h-3.4v11.5l-6.9,3.4h17.2L25.7,45.2z"/>
<path class="st2" d="M35.2,22.5c0,0.1,0,0.1,0,0.2c0,6.2-5,11.2-11.2,11.2c-6.2,0-11.2-5-11.2-11.2c0-0.7,0.1-1.5,0.2-2.2
	c1.3,1.3,3.2,2.7,4.9,3c3.3,0.5,6.7-3.5,10.3-3.4C30.6,20.2,33.4,21.5,35.2,22.5L35.2,22.5z"/>
<path class="st1" d="M27.5,6.4h4.2l3.2,13.8c0.2,0.7,0.3,1.5,0.3,2.3h0c-1.8-1-4.6-2.3-6.9-2.4c-3.6-0.1-7,4-10.3,3.4
	c-1.8-0.3-3.6-1.7-4.9-3c0-0.1,3.2-14.2,3.2-14.2h4.4"/>
<path d="M12,20.7c0,5.7,4,10.6,9.5,11.8v10.2L15,45.9c-0.4,0.2-0.5,0.6-0.5,1c0.1,0.4,0.4,0.7,0.8,0.7h17.2c0.4,0,0.7-0.3,0.8-0.7
	c0.1-0.4-0.1-0.8-0.5-1l-6.4-3.2V32.4c5.6-1.2,9.6-6.3,9.5-11.9c0-2.2-0.4-2.5-3.5-16.3c-0.1-0.4-0.4-0.7-0.8-0.7h-4.2
	c-0.5,0-0.9,0.4-0.9,0.9s0.4,0.9,0.9,0.9H31c0,0,3.1,13.6,3.1,13.8c-1.8-0.9-4-1.7-5.9-1.8c-2-0.1-3.8,0.9-5.6,1.9
	c-1.7,0.9-3.2,1.8-4.6,1.5c-1.2-0.2-2.6-1-4.1-2.5l3-13h3.7c0.5,0,0.9-0.4,0.9-0.9s-0.4-0.9-0.9-0.9h-4.4c-0.4,0-0.7,0.3-0.8,0.7
	C12,19.2,12,18.7,12,20.7z M29,45.8H19l3.6-1.8c0.3-0.1,0.5-0.4,0.5-0.8V32.7c0.3,0,0.6,0,0.9,0s0.6,0,0.9,0v10.5
	c0,0.3,0.2,0.6,0.5,0.8L29,45.8z M23.6,20.7c1.6-0.9,3.2-1.7,4.7-1.7c1.5,0,3.6,0.8,6,2.1c-0.2,5.4-4.7,10-10.4,10
	c-5.9,0-10.5-5-10.2-10.7c1.5,1.2,2.9,1.9,4.1,2.1C19.9,22.7,21.8,21.6,23.6,20.7z"/>
<path d="M24.9,6.4c0,0.5-0.4,0.9-0.9,0.9s-0.9-0.4-0.9-0.9s0.4-0.9,0.9-0.9S24.9,5.9,24.9,6.4z"/>
</svg>
